<?xml version="1.0" encoding="UTF-8" standalone="no"?>
<!DOCTYPE svg PUBLIC "-//W3C//DTD SVG 1.1//EN" "http://www.w3.org/Graphics/SVG/1.1/DTD/svg11.dtd">
<svg width="220%" height="310%" viewBox="0 0 1080 1080" version="1.1" xmlns="http://www.w3.org/2000/svg" xmlns:xlink="http://www.w3.org/1999/xlink" xml:space="preserve" xmlns:serif="http://www.serif.com/" style="fill-rule:evenodd;clip-rule:evenodd;stroke-linejoin:round;stroke-miterlimit:2;">
    <rect id="_0_VerdeJade" serif:id="0_VerdeJade" x="0" y="0" width="1080" height="1080" style="fill:none;"/>
    <g id="_0_VerdeJade1" serif:id="0_VerdeJade">
        <g transform="matrix(1.44804,0,0,1.44804,-4154.37,-14.4364)">
            <g transform="matrix(1,0,0,1,-4112.49,-689.235)">
                <path d="M7527.45,1198.69L7527.45,1199.75C7527.45,1214.15 7521.73,1227.96 7511.55,1238.14C7501.37,1248.32 7487.56,1254.04 7473.16,1254.04C7443.18,1254.04 7418.87,1229.73 7418.87,1199.75L7418.87,1152.17C7418.87,1148.85 7421.56,1146.17 7424.87,1146.17L7532.55,1146.17C7547.05,1146.17 7558.81,1157.92 7558.81,1172.43L7558.81,1172.43C7558.81,1186.93 7547.05,1198.69 7532.55,1198.69L7527.45,1198.69ZM7515.45,1158.17L7498.27,1158.17L7430.87,1158.17L7430.87,1199.75C7430.87,1223.11 7449.8,1242.04 7473.16,1242.04C7484.38,1242.04 7495.13,1237.58 7503.06,1229.65C7510.99,1221.72 7515.45,1210.97 7515.45,1199.75L7515.45,1158.17ZM7527.45,1186.69L7532.55,1186.69C7540.42,1186.69 7546.81,1180.3 7546.81,1172.43L7546.81,1172.43C7546.81,1164.55 7540.42,1158.17 7532.55,1158.17L7527.45,1158.17L7527.45,1186.69Z" style="fill:rgb(0,107,105);"/>
            </g>
            <g transform="matrix(1,0,0,1,-4112.49,-689.235)">
                <path d="M7354.37,761.357C7525.89,761.357 7665.14,900.607 7665.14,1072.12C7665.14,1243.64 7525.89,1382.89 7354.37,1382.89C7182.85,1382.89 7043.61,1243.64 7043.61,1072.12C7043.61,900.607 7182.85,761.357 7354.37,761.357ZM7136.95,889.512C7094.07,940.624 7070.56,1005.21 7070.56,1071.94C7070.56,1155.83 7107.67,1235.42 7171.93,1289.34L7179.65,1280.15C7118.1,1228.5 7082.56,1152.28 7082.56,1071.94C7082.56,1008.03 7105.07,946.177 7146.15,897.226L7136.95,889.512ZM7354.37,825.357C7218.18,825.357 7107.61,935.929 7107.61,1072.12C7107.61,1208.32 7218.18,1318.89 7354.37,1318.89C7490.56,1318.89 7601.14,1208.32 7601.14,1072.12C7601.14,935.929 7490.56,825.357 7354.37,825.357ZM7348.51,808.963L7374.64,809.667L7374.79,803.88L7355.6,803.363L7355.86,794.014L7373.1,794.479L7373.26,788.692L7356.01,788.227L7356.22,780.613L7374.75,781.113L7374.9,775.302L7349.44,774.616L7348.51,808.963ZM7199.85,838.197C7202.59,842.927 7206.05,845.885 7210.22,847.069C7214.4,848.253 7218.69,847.564 7223.11,845.001C7227.48,842.469 7230.18,839.092 7231.22,834.869C7232.25,830.646 7231.38,826.136 7228.6,821.337C7225.79,816.498 7222.29,813.482 7218.08,812.289C7213.88,811.097 7209.59,811.77 7205.21,814.31C7202.79,815.713 7200.88,817.343 7199.48,819.201C7198.43,820.589 7197.66,822.224 7197.19,824.105C7196.72,825.986 7196.59,827.879 7196.79,829.785C7197.07,832.365 7198.09,835.169 7199.85,838.197ZM7205.92,834.408C7203.93,830.988 7203.21,827.991 7203.74,825.417C7204.27,822.843 7205.77,820.839 7208.24,819.404C7210.72,817.97 7213.19,817.658 7215.65,818.468C7218.12,819.278 7220.34,821.386 7222.31,824.793C7224.31,828.239 7225.04,831.269 7224.51,833.882C7223.97,836.495 7222.51,838.495 7220.12,839.883C7217.72,841.27 7215.25,841.546 7212.69,840.71C7210.12,839.875 7207.87,837.774 7205.92,834.408ZM7482.7,822.824C7479.9,827.525 7479.01,831.986 7480.01,836.206C7481.01,840.427 7483.71,843.841 7488.1,846.451C7492.44,849.028 7496.7,849.74 7500.9,848.587C7505.09,847.434 7508.6,844.473 7511.44,839.704C7514.29,834.895 7515.22,830.364 7514.21,826.112C7513.2,821.859 7510.52,818.441 7506.16,815.855C7503.76,814.427 7501.41,813.555 7499.1,813.241C7497.38,812.997 7495.58,813.127 7493.7,813.633C7491.83,814.138 7490.11,814.944 7488.55,816.049C7486.44,817.556 7484.49,819.815 7482.7,822.824ZM7488.96,826.273C7490.98,822.874 7493.24,820.779 7495.75,819.987C7498.26,819.195 7500.74,819.529 7503.2,820.989C7505.65,822.449 7507.13,824.453 7507.63,827.001C7508.12,829.548 7507.36,832.515 7505.35,835.9C7503.32,839.326 7501.03,841.442 7498.49,842.249C7495.94,843.056 7493.49,842.753 7491.11,841.341C7488.73,839.928 7487.28,837.9 7486.76,835.256C7486.24,832.612 7486.98,829.618 7488.96,826.273ZM7510.94,860.553L7516.3,864.957L7524.53,854.943L7528.02,857.815C7530.45,859.808 7532.4,861.204 7533.89,862.002C7535,862.571 7536.27,862.913 7537.7,863.028C7539.14,863.143 7540.61,862.888 7542.11,862.263C7543.61,861.639 7545.04,860.512 7546.38,858.882C7548.11,856.769 7549.01,854.624 7549.08,852.447C7549.15,850.27 7548.59,848.357 7547.4,846.709C7546.63,845.63 7544.61,843.751 7541.35,841.073L7532.75,834.005L7510.94,860.553ZM7534.42,842.901L7537.01,845.028C7538.94,846.615 7540.18,847.732 7540.72,848.379C7541.46,849.25 7541.85,850.232 7541.9,851.326C7541.96,852.42 7541.59,853.45 7540.79,854.416C7540.15,855.201 7539.38,855.723 7538.49,855.982C7537.6,856.241 7536.68,856.217 7535.74,855.91C7534.8,855.602 7533.28,854.58 7531.16,852.844L7528.23,850.434L7534.42,842.901ZM7438.91,822.745L7445.35,825.316L7450.92,811.363L7463.54,816.401L7457.98,830.355L7464.42,832.926L7477.15,801.014L7470.71,798.443L7465.7,811.003L7453.07,805.965L7458.08,793.404L7451.64,790.833L7438.91,822.745ZM7209.2,1292.53L7191.86,1322.19L7203.12,1328.78C7205.34,1330.08 7207.23,1330.9 7208.79,1331.26C7210.89,1331.72 7212.75,1331.75 7214.38,1331.35C7216.54,1330.82 7218.62,1329.69 7220.62,1327.97C7222.27,1326.56 7223.8,1324.63 7225.23,1322.19C7226.85,1319.41 7227.9,1316.88 7228.36,1314.61C7228.82,1312.34 7228.81,1310.18 7228.33,1308.15C7227.86,1306.11 7226.9,1304.33 7225.46,1302.8C7224.39,1301.67 7222.61,1300.38 7220.15,1298.93L7209.2,1292.53ZM7212.26,1301.05L7214.95,1302.63C7217.39,1304.05 7218.97,1305.11 7219.7,1305.79C7220.67,1306.68 7221.33,1307.69 7221.65,1308.8C7221.98,1309.92 7221.98,1311.2 7221.67,1312.67C7221.36,1314.13 7220.53,1316.01 7219.19,1318.3C7217.85,1320.6 7216.59,1322.29 7215.41,1323.38C7214.22,1324.47 7213.14,1325.12 7212.16,1325.33C7211.18,1325.53 7210.14,1325.47 7209.02,1325.15C7208.17,1324.9 7206.91,1324.29 7205.24,1323.31L7200.77,1320.7L7212.26,1301.05ZM7187.54,852.72C7188.67,855.039 7189.09,857.072 7188.8,858.818C7188.5,860.565 7187.64,862.018 7186.21,863.179C7184.27,864.752 7182.11,865.314 7179.73,864.865C7177.36,864.415 7174.8,862.503 7172.07,859.127C7169.49,855.946 7168.24,853.146 7168.33,850.727C7168.41,848.308 7169.44,846.297 7171.42,844.694C7172.85,843.534 7174.39,842.949 7176.04,842.939C7177.69,842.929 7179.24,843.488 7180.68,844.617L7184.98,839.02C7182.64,837.375 7180.4,836.473 7178.27,836.315C7174.66,836.036 7171.23,837.22 7167.96,839.865C7164.22,842.894 7162.2,846.567 7161.9,850.884C7161.59,855.202 7163.24,859.583 7166.84,864.027C7170.24,868.228 7174.06,870.615 7178.31,871.189C7182.55,871.763 7186.45,870.614 7189.99,867.743C7192.86,865.422 7194.65,862.799 7195.37,859.875C7196.09,856.951 7195.67,853.708 7194.11,850.144L7187.54,852.72ZM7246.69,831.953L7253.14,829.397L7247.76,815.823L7261.09,810.537L7258.95,805.134L7245.61,810.419L7242.62,802.859L7258.07,796.735L7255.92,791.332L7234.03,800.012L7246.69,831.953ZM7311.83,812.319L7337.8,809.408L7337.16,803.655L7318.08,805.793L7317.04,796.499L7334.18,794.578L7333.54,788.825L7316.4,790.746L7315.55,783.177L7333.97,781.112L7333.32,775.336L7308.01,778.173L7311.83,812.319ZM7278.66,820.025L7285.38,818.331L7281.82,804.171L7295.73,800.67L7294.31,795.033L7280.4,798.534L7278.41,790.648L7294.53,786.591L7293.11,780.955L7270.27,786.705L7278.66,820.025ZM7404.09,802.182C7403.64,806.026 7404.32,809.194 7406.12,811.684C7407.93,814.175 7410.94,815.92 7415.17,816.921C7418.07,817.609 7420.59,817.777 7422.73,817.424C7424.87,817.072 7426.67,816.186 7428.13,814.765C7429.59,813.345 7430.55,811.677 7431,809.761C7431.5,807.648 7431.48,805.767 7430.93,804.12C7430.38,802.472 7429.42,801.048 7428.04,799.846C7426.66,798.645 7424.42,797.268 7421.32,795.714C7418.22,794.161 7416.33,792.926 7415.65,792.01C7415.11,791.289 7414.94,790.533 7415.13,789.743C7415.33,788.876 7415.85,788.269 7416.69,787.921C7417.99,787.378 7419.62,787.339 7421.58,787.804C7423.48,788.254 7424.82,788.968 7425.59,789.945C7426.36,790.923 7426.69,792.305 7426.57,794.092L7433.39,795.394C7434.01,792.298 7433.48,789.578 7431.8,787.236C7430.11,784.894 7427.17,783.226 7422.97,782.232C7420.4,781.624 7418.12,781.492 7416.12,781.837C7414.12,782.182 7412.46,782.981 7411.14,784.235C7409.83,785.489 7408.97,786.967 7408.56,788.67C7407.94,791.316 7408.43,793.801 7410.05,796.127C7411.2,797.781 7413.48,799.484 7416.88,801.238C7419.53,802.604 7421.22,803.517 7421.94,803.978C7423,804.662 7423.7,805.337 7424.03,806.002C7424.36,806.666 7424.43,807.394 7424.25,808.185C7423.95,809.416 7423.15,810.362 7421.83,811.02C7420.51,811.679 7418.76,811.751 7416.59,811.236C7414.53,810.75 7413.03,809.847 7412.06,808.527C7411.1,807.206 7410.68,805.397 7410.81,803.099L7404.09,802.182ZM7561.44,897.226C7602.52,946.177 7625.03,1008.03 7625.03,1071.94C7625.03,1152.28 7589.49,1228.5 7527.94,1280.15L7535.65,1289.34C7599.92,1235.42 7637.03,1155.83 7637.03,1071.94C7637.03,1005.21 7613.52,940.624 7570.64,889.512L7561.44,897.226ZM7307.42,1331.9L7303.2,1366L7316.16,1367.6C7318.7,1367.91 7320.77,1367.92 7322.34,1367.63C7324.46,1367.23 7326.18,1366.52 7327.52,1365.51C7329.29,1364.17 7330.76,1362.31 7331.92,1359.93C7332.86,1357.99 7333.51,1355.61 7333.86,1352.81C7334.26,1349.61 7334.22,1346.88 7333.74,1344.61C7333.27,1342.34 7332.41,1340.36 7331.17,1338.68C7329.93,1337 7328.34,1335.74 7326.41,1334.91C7324.98,1334.29 7322.84,1333.8 7320.01,1333.45L7307.42,1331.9ZM7313.59,1338.52L7316.69,1338.9C7319.49,1339.25 7321.36,1339.59 7322.3,1339.92C7323.55,1340.36 7324.55,1341.03 7325.29,1341.92C7326.03,1342.82 7326.54,1344 7326.83,1345.47C7327.12,1346.94 7327.11,1348.99 7326.78,1351.62C7326.45,1354.26 7325.96,1356.31 7325.31,1357.78C7324.65,1359.25 7323.92,1360.28 7323.1,1360.85C7322.28,1361.43 7321.3,1361.79 7320.15,1361.93C7319.27,1362.04 7317.86,1361.98 7315.94,1361.74L7310.8,1361.1L7313.59,1338.52ZM7435.94,1322.64C7432.77,1323.67 7430.67,1325.59 7429.62,1328.39C7428.37,1331.8 7428.74,1336.57 7430.74,1342.72C7432.79,1348.99 7435.18,1353.03 7437.92,1354.84C7440.66,1356.65 7443.62,1357.04 7446.8,1356C7449.97,1354.97 7452.07,1353.05 7453.11,1350.25C7454.37,1346.85 7453.99,1342.06 7451.98,1335.88C7449.96,1329.68 7447.45,1325.59 7444.46,1323.61C7441.94,1321.93 7439.1,1321.61 7435.94,1322.64ZM7437.63,1327.83C7438.38,1327.59 7439.14,1327.61 7439.88,1327.9C7440.62,1328.19 7441.42,1328.99 7442.28,1330.3C7443.13,1331.61 7444.18,1334.18 7445.43,1338.01C7446.68,1341.84 7447.35,1344.63 7447.44,1346.38C7447.52,1347.73 7447.34,1348.75 7446.9,1349.42C7446.47,1350.1 7445.87,1350.56 7445.11,1350.81C7444.35,1351.06 7443.61,1351.04 7442.86,1350.75C7442.12,1350.47 7441.32,1349.67 7440.47,1348.37C7439.62,1347.06 7438.57,1344.49 7437.32,1340.65C7436.07,1336.82 7435.4,1334.03 7435.3,1332.27C7435.22,1330.91 7435.4,1329.89 7435.83,1329.22C7436.27,1328.54 7436.87,1328.08 7437.63,1327.83ZM7423.57,1355.88L7410.75,1358.46C7410.97,1357.81 7411.29,1357.13 7411.71,1356.4C7412.13,1355.68 7413.17,1354.18 7414.83,1351.9C7416.49,1349.62 7417.61,1347.91 7418.2,1346.75C7419.07,1345.01 7419.65,1343.4 7419.91,1341.92C7420.18,1340.44 7420.16,1338.94 7419.86,1337.43C7419.32,1334.76 7417.92,1332.73 7415.66,1331.32C7413.4,1329.91 7410.61,1329.54 7407.28,1330.21C7404.25,1330.82 7401.88,1332.1 7400.17,1334.06C7398.46,1336.01 7397.77,1338.81 7398.1,1342.43L7404.66,1341.78C7404.41,1339.87 7404.6,1338.43 7405.23,1337.46C7405.86,1336.49 7406.85,1335.87 7408.2,1335.59C7409.56,1335.32 7410.71,1335.49 7411.64,1336.11C7412.57,1336.73 7413.18,1337.75 7413.47,1339.19C7413.73,1340.5 7413.55,1341.9 7412.93,1343.41C7412.47,1344.51 7411.05,1346.71 7408.69,1350.01C7405.75,1354.09 7403.88,1357.27 7403.06,1359.55C7402.24,1361.82 7401.94,1364.12 7402.15,1366.44L7424.78,1361.87L7423.57,1355.88ZM7485.81,1332.91L7473.91,1338.35C7473.98,1337.66 7474.13,1336.92 7474.38,1336.12C7474.62,1335.32 7475.3,1333.63 7476.39,1331.03C7477.49,1328.43 7478.19,1326.51 7478.5,1325.25C7478.95,1323.36 7479.15,1321.66 7479.07,1320.16C7478.99,1318.66 7478.63,1317.2 7477.99,1315.79C7476.86,1313.32 7475.04,1311.65 7472.52,1310.8C7469.99,1309.94 7467.19,1310.21 7464.11,1311.62C7461.29,1312.91 7459.27,1314.69 7458.05,1316.99C7456.83,1319.28 7456.8,1322.16 7457.95,1325.62L7464.19,1323.49C7463.51,1321.69 7463.36,1320.24 7463.76,1319.15C7464.15,1318.06 7464.97,1317.23 7466.23,1316.66C7467.49,1316.08 7468.65,1315.99 7469.69,1316.38C7470.74,1316.77 7471.56,1317.63 7472.17,1318.97C7472.73,1320.17 7472.87,1321.58 7472.61,1323.2C7472.41,1324.37 7471.53,1326.83 7469.98,1330.58C7468.05,1335.23 7466.94,1338.75 7466.66,1341.15C7466.39,1343.56 7466.61,1345.86 7467.35,1348.07L7488.35,1338.48L7485.81,1332.91ZM7228.53,1342.5L7252.68,1352.5L7254.89,1347.15L7237.15,1339.81L7240.73,1331.16L7256.67,1337.76L7258.88,1332.42L7242.95,1325.82L7245.86,1318.78L7262.99,1325.87L7265.21,1320.5L7241.67,1310.76L7228.53,1342.5ZM7266.31,1345.41C7265.75,1349.24 7266.33,1352.43 7268.06,1354.97C7269.79,1357.52 7272.75,1359.35 7276.94,1360.48C7279.82,1361.26 7282.34,1361.5 7284.49,1361.21C7286.64,1360.92 7288.46,1360.09 7289.96,1358.72C7291.47,1357.34 7292.47,1355.7 7292.98,1353.8C7293.55,1351.7 7293.58,1349.82 7293.08,1348.16C7292.58,1346.5 7291.66,1345.04 7290.32,1343.8C7288.98,1342.56 7286.79,1341.11 7283.73,1339.47C7280.68,1337.82 7278.83,1336.53 7278.17,1335.59C7277.66,1334.86 7277.51,1334.1 7277.72,1333.31C7277.95,1332.45 7278.49,1331.86 7279.34,1331.54C7280.65,1331.04 7282.29,1331.05 7284.23,1331.57C7286.12,1332.08 7287.43,1332.83 7288.18,1333.83C7288.92,1334.83 7289.2,1336.22 7289.03,1338.01L7295.81,1339.51C7296.52,1336.44 7296.07,1333.7 7294.46,1331.31C7292.85,1328.92 7289.96,1327.16 7285.79,1326.04C7283.24,1325.36 7280.96,1325.15 7278.95,1325.44C7276.94,1325.72 7275.26,1326.47 7273.91,1327.69C7272.55,1328.9 7271.65,1330.35 7271.19,1332.04C7270.49,1334.67 7270.91,1337.17 7272.45,1339.54C7273.55,1341.23 7275.78,1343 7279.13,1344.86C7281.73,1346.3 7283.39,1347.26 7284.1,1347.75C7285.14,1348.46 7285.82,1349.16 7286.13,1349.83C7286.44,1350.51 7286.49,1351.24 7286.28,1352.02C7285.95,1353.24 7285.12,1354.16 7283.78,1354.78C7282.44,1355.4 7280.69,1355.42 7278.53,1354.84C7276.49,1354.29 7275.01,1353.34 7274.09,1352C7273.17,1350.65 7272.8,1348.83 7273,1346.53L7266.31,1345.41ZM7344.91,1370.16L7371.04,1369.85L7370.97,1364.06L7351.78,1364.29L7351.67,1354.94L7368.92,1354.73L7368.85,1348.95L7351.6,1349.15L7351.51,1341.53L7370.05,1341.31L7369.98,1335.5L7344.5,1335.81L7344.91,1370.16ZM7513.06,1324.34L7495.4,1294.71L7490.81,1297.44C7491.24,1299.62 7490.99,1301.91 7490.06,1304.29C7489.13,1306.67 7488.07,1308.54 7486.89,1309.9L7489.95,1315.04C7492.2,1312.44 7493.78,1309.56 7494.7,1306.39L7507.41,1327.71L7513.06,1324.34Z" style="fill:rgb(0,107,105);"/>
            </g>
            <g transform="matrix(1,0,0,1,-4112.49,-689.235)">
                <path d="M7246.31,1044.9C7270.65,995.286 7301.32,944.538 7330.44,910.322C7378.41,853.957 7413.39,841.464 7413.39,841.464C7414.23,841.162 7415.17,841.451 7415.69,842.172C7415.69,842.172 7452.2,892.096 7398.47,992.154C7397.35,994.256 7396.32,996.4 7395.23,998.496C7453.63,1003 7471.32,1020.01 7471.32,1020.01C7471.81,1020.48 7472.04,1021.16 7471.91,1021.83C7471.91,1021.83 7465.41,1058.47 7405.53,1083.03C7378.98,1093.92 7345.51,1099.72 7317.5,1095.07C7297.71,1091.78 7280.65,1083.37 7270.01,1068.75C7267.74,1065.62 7268.43,1061.24 7271.56,1058.97C7274.68,1056.7 7279.06,1057.39 7281.33,1060.51C7289.9,1072.29 7303.85,1081.39 7319.79,1084.04C7345.36,1088.29 7375.97,1082.99 7400.15,1072.89C7415.64,1066.42 7425.34,1056.21 7432.07,1046.86C7435.59,1041.96 7437.32,1036.86 7435.88,1031.72C7434.98,1028.51 7432.74,1025.92 7429.64,1023.73C7426.27,1021.36 7421.92,1019.49 7417,1017.93C7408.05,1015.09 7399.83,1012.74 7389.08,1012.15C7387.6,1012.07 7386.17,1012.73 7385.28,1013.91L7385.27,1013.92C7369.72,1034.34 7349.19,1048.3 7333.76,1052.18C7325.14,1054.35 7317.78,1053.46 7312.69,1050.14C7307.2,1046.56 7303.52,1040.07 7304.15,1029.66C7304.55,1023.09 7308.77,1016.87 7316.6,1011.94C7325.53,1006.32 7339.61,1002.08 7355.44,999.851C7362.36,998.878 7369.62,998.28 7376.9,998.083L7376.9,998.083C7378.43,998.046 7379.83,997.237 7380.62,995.936C7382.51,992.794 7384.26,989.528 7385.83,986.15C7399.25,957.281 7407.66,929.706 7407.72,907.664C7407.75,896.189 7404.99,887.354 7395.71,884.813C7390.26,883.322 7384.17,884.874 7377.54,888.294C7365.51,894.499 7354.8,903.306 7341.1,919.396C7309.89,956.069 7276.83,1012.2 7252.13,1064.93C7261.49,1101.81 7265.96,1144.89 7266.35,1171.36C7266.73,1197.06 7260.78,1232.7 7249.04,1250.99C7243.6,1259.46 7236.86,1264.27 7229.13,1263.52C7217.91,1262.42 7209.79,1253.54 7204.77,1240.25C7197.59,1221.28 7196.61,1193.27 7200.76,1168.25C7205.08,1142.28 7216.5,1107.17 7235.12,1066.75C7231.85,1054.66 7227.99,1043.43 7223.52,1033.99C7219.95,1026.45 7216.02,1020.1 7211.59,1015.56C7208,1011.88 7204.17,1009.44 7199.85,1009.07C7192.86,1008.48 7187.95,1010.27 7184.81,1013.52C7181.67,1016.76 7180.33,1021.37 7180.28,1026.17C7180.24,1031.06 7182.26,1035.69 7187.56,1036.02C7191.41,1036.26 7194.35,1039.59 7194.11,1043.44C7193.87,1047.3 7190.54,1050.23 7186.69,1049.99C7173.07,1049.14 7166.18,1038.61 7166.28,1026.05C7166.43,1009.62 7179.43,990.031 7203.28,992.047C7217.03,993.21 7229.22,1005.48 7238.43,1024.92C7241.29,1030.96 7243.92,1037.69 7246.31,1044.9ZM7368.36,1012.54C7364.45,1012.84 7360.55,1013.27 7357.39,1013.71C7345.52,1015.38 7337.91,1017.88 7330.85,1021.45C7328.3,1022.74 7325.6,1024.41 7323.91,1026.49C7322.57,1028.14 7321.97,1030.08 7323.13,1032.28C7324.35,1034.6 7326.53,1035.2 7328.76,1035.21C7331.52,1035.22 7334.38,1034.37 7336.33,1033.88C7346.22,1031.39 7356.77,1025.61 7368.36,1012.54ZM7241.33,1090.36C7227.33,1122.92 7218.9,1151.15 7216.73,1170.44C7213.1,1202.74 7215.7,1221.83 7220.9,1232.02C7223.99,1238.07 7227.94,1240.75 7231.95,1240.88C7232.51,1240.9 7233.13,1240.51 7233.86,1239.91C7234.95,1239.03 7236.12,1237.68 7237.32,1235.85C7243.49,1226.53 7250.18,1205.7 7249.9,1171.41C7249.75,1152.26 7247.55,1121.23 7241.33,1090.36ZM7300.47,1003.41C7300.47,1003.41 7343.38,979.256 7364.03,951.5C7385.97,922.01 7391.31,893.473 7391.31,893.473C7391.31,893.473 7400.91,926.203 7372.21,960.667C7336.86,1003.11 7300.47,1003.41 7300.47,1003.41ZM7297.32,1055.47C7297.32,1055.47 7330.25,1070.32 7363.57,1061.01C7390.71,1053.43 7420.87,1028.31 7420.87,1028.31C7420.87,1028.31 7404,1065.05 7364.03,1073.29C7315.9,1083.22 7297.32,1055.47 7297.32,1055.47Z" style="fill:rgb(0,107,105);"/>
            </g>
            <g transform="matrix(1,0,0,1,-4112.49,-689.235)">
                <path d="M7429.36,1134.29C7435.32,1121.17 7450.8,1121.47 7471.95,1129.31C7488.54,1135.46 7505,1126.19 7505.53,1108.98C7506.46,1078.66 7460.58,1073.24 7460.16,1097.83C7459.77,1120.04 7486.12,1116.48 7486.55,1106.75C7487.14,1093.64 7477.94,1093.84 7474.73,1097C7477.53,1089.99 7494.39,1090.35 7493.15,1106.89C7491.65,1126.91 7450.57,1128.91 7451.63,1097.69C7452.83,1062.7 7514.84,1068.62 7514.05,1108.98C7513.71,1126.2 7497.79,1145.3 7471.57,1135.5C7458.67,1130.67 7441.09,1123.37 7429.36,1134.29Z" style="fill:rgb(0,107,105);"/>
            </g>
            <g transform="matrix(1,0,0,1,-4112.49,-689.235)">
                <path d="M7355.01,1222.38C7351.85,1232.47 7347.22,1241.86 7341.97,1247.99C7337.15,1253.61 7331.65,1256.64 7326.32,1256.7C7316.97,1256.81 7311,1251.46 7307.39,1243.4C7303.25,1234.16 7302.61,1220.85 7301.96,1212.28C7301.87,1211.08 7301.77,1209.82 7301.67,1208.51C7299.37,1213.45 7296.5,1218.35 7293.22,1221.28C7288.23,1225.73 7282.51,1227 7276.24,1222.88C7274.3,1221.6 7272.45,1219.03 7271.36,1215.55C7269.7,1210.26 7269.44,1202.54 7269.91,1199.29C7271.27,1189.87 7276.38,1180.04 7282.01,1175.49C7285.32,1172.81 7288.9,1171.69 7292.31,1172.1C7294.77,1172.39 7297.24,1173.46 7299.54,1175.68C7300.44,1176.55 7301.28,1177.51 7302.05,1178.53C7304.9,1176.6 7307.39,1177.3 7309.31,1178.84C7309.9,1179.31 7311.11,1180.45 7311.66,1182.79C7312.42,1186.01 7313.07,1200.09 7313.92,1211.37C7314.4,1217.72 7314.72,1227 7316.96,1234.66C7318.5,1239.96 7320.7,1244.77 7326.18,1244.7C7327.53,1244.69 7328.8,1243.93 7330.09,1242.91C7332.09,1241.31 7333.98,1239 7335.75,1236.26C7341.77,1226.94 7346.23,1212.89 7347.2,1200.73C7347.23,1200.4 7347.28,1200.08 7347.36,1199.77C7347.38,1199.56 7347.41,1199.35 7347.44,1199.14C7348.09,1194.85 7350.49,1184.56 7355.94,1177.49C7360.39,1171.73 7366.64,1167.93 7375.06,1169.07C7377.66,1169.43 7381.04,1170.06 7384.76,1171.5C7384.31,1168.79 7383.92,1166.46 7383.56,1164.63C7380.18,1147.25 7381.36,1132.78 7385.07,1123.41C7388.22,1115.45 7393.33,1110.77 7398.97,1109.4C7402.04,1108.66 7404.73,1108.93 7407.06,1109.87C7410.31,1111.18 7413.01,1113.9 7414.75,1118C7417.68,1124.89 7417.8,1136.75 7414.64,1149.01C7411.88,1159.7 7406.38,1173.85 7399.79,1187.38C7399.77,1187.43 7399.75,1187.48 7399.72,1187.53C7402.17,1199.3 7405.86,1212.38 7411.95,1222.24C7415.22,1227.54 7419.18,1231.87 7424.28,1234.02C7428.81,1235.92 7434.15,1235.97 7440.51,1233.78C7441.03,1233.31 7441.64,1232.91 7442.33,1232.64C7449.87,1229.59 7456.56,1224.35 7461.91,1218.02C7457.56,1210.09 7455.98,1201.12 7456.79,1192.35C7457.54,1184.31 7460.21,1176.36 7463.7,1172.12C7466.16,1169.14 7469.12,1167.6 7472.15,1167.41C7475.44,1167.2 7480.83,1168.29 7484.36,1173.82C7486.84,1177.69 7488.66,1184.53 7485.98,1196.4C7484.32,1203.72 7481.13,1211.15 7476.72,1218C7480.45,1222.13 7485.53,1225.58 7492.07,1227.93C7495.18,1229.05 7496.81,1232.48 7495.69,1235.6C7494.57,1238.72 7491.13,1240.34 7488.01,1239.22C7480.24,1236.43 7474.03,1232.46 7469.25,1227.73C7463.46,1234.09 7456.53,1239.42 7448.83,1242.9C7448.27,1243.47 7447.58,1243.93 7446.8,1244.25C7436.02,1248.55 7427.07,1248.21 7419.63,1245.08C7412.35,1242.01 7406.42,1236.12 7401.74,1228.55C7397.19,1221.19 7393.84,1212.17 7391.3,1203.12C7386.61,1210.8 7380.56,1219.05 7373.97,1223.84C7367.16,1228.78 7360.74,1227.46 7355.67,1222.99C7355.44,1222.79 7355.23,1222.59 7355.01,1222.38ZM7295.47,1191.37C7294.79,1189.12 7293.25,1186.3 7291.19,1184.3C7290.87,1183.99 7290.51,1184.16 7290.18,1184.37C7289.43,1184.84 7288.73,1185.52 7288.05,1186.32C7284.99,1189.88 7282.57,1195.58 7281.78,1201.01C7281.51,1202.91 7281.67,1207.05 7282.41,1210.46C7282.6,1211.32 7283.06,1212.54 7283.27,1213.06C7283.99,1213.28 7284.62,1212.86 7285.22,1212.33C7286.69,1211.02 7287.96,1209.11 7289.13,1207.02C7292.16,1201.6 7294.33,1194.98 7295.47,1191.37ZM7469.9,1205.86C7471.88,1201.89 7473.36,1197.8 7474.28,1193.76C7475.62,1187.79 7475.66,1183.84 7474.72,1181.25C7474.35,1180.22 7473.81,1179.63 7473.31,1179.45C7472.93,1179.93 7471.97,1181.18 7471.5,1182.2C7470.07,1185.3 7469.12,1189.38 7468.74,1193.45C7468.36,1197.62 7468.72,1201.84 7469.9,1205.86ZM7386.9,1186.35C7381.82,1182.47 7376.74,1181.41 7373.44,1180.96C7368.69,1180.32 7365.81,1183.74 7363.77,1187.38C7360.97,1192.36 7359.72,1198.24 7359.3,1200.94C7358.73,1204.74 7360.04,1209.47 7362.36,1212.61C7363.18,1213.71 7364.02,1214.74 7365.18,1214.84C7365.74,1214.89 7366.3,1214.58 7366.92,1214.12C7375.13,1208.17 7382.03,1195.73 7386.14,1187.83C7386.39,1187.34 7386.64,1186.84 7386.9,1186.35ZM7396.05,1166.38C7399.06,1158.98 7401.49,1151.93 7403.02,1146.01C7405.06,1138.11 7405.64,1130.44 7404.43,1125.02C7404.16,1123.82 7403.81,1122.76 7403.32,1121.9C7402.98,1121.3 7402.5,1120.9 7401.78,1121.07C7399.28,1121.67 7397.62,1124.3 7396.23,1127.83C7393.12,1135.67 7392.51,1147.79 7395.34,1162.33C7395.57,1163.48 7395.8,1164.84 7396.05,1166.38Z" style="fill:rgb(0,107,105);"/>
            </g>
        </g>
    </g>
</svg>
